<?xml version="1.0" encoding="utf-8"?>
<!-- Generator: Adobe Illustrator 16.0.0, SVG Export Plug-In . SVG Version: 6.00 Build 0)  -->
<!DOCTYPE svg PUBLIC "-//W3C//DTD SVG 1.1//EN" "http://www.w3.org/Graphics/SVG/1.1/DTD/svg11.dtd">
<svg version="1.1" id="Layer_1" xmlns="http://www.w3.org/2000/svg" xmlns:xlink="http://www.w3.org/1999/xlink" x="0px" y="0px"
	 width="1100px" height="500px" viewBox="0 0 1100 500" enable-background="new 0 0 1100 500" xml:space="preserve">
<g>
	<g>
		<path fill="#EA118D" d="M386.069,388.441c-17.125,16.361-36.711,24.539-58.76,24.539c-23.504,0-43.542-8.282-60.112-24.854
			c-16.572-16.57-24.856-36.61-24.856-60.112c0-23.437,8.285-43.471,24.856-60.11c16.57-16.643,36.608-24.963,60.112-24.963
			c21.98,0,42.813,8.98,62.504,26.937l-16.12,14.666c-14.838-13.172-30.299-19.761-46.384-19.761
			c-17.403,0-32.291,6.168-44.667,18.514c-12.377,12.336-18.564,27.246-18.564,44.718c0,17.543,6.187,32.482,18.564,44.825
			c12.376,12.344,27.264,18.512,44.667,18.512c14.976,0,27.387-3.949,37.232-11.856v-50.23h21.528V388.441z"/>
		<path fill="#EA118D" d="M418.414,411.217V244.812h21.528v144.773h59.488v21.632H418.414z"/>
		<path fill="#EA118D" d="M659.59,267.588c16.639,16.643,24.957,36.71,24.957,60.217c0,23.5-8.318,43.576-24.957,60.217
			c-16.643,16.642-36.715,24.959-60.217,24.959c-23.5,0-43.574-8.317-60.215-24.959c-16.64-16.641-24.961-36.717-24.961-60.217
			c0-23.507,8.321-43.574,24.961-60.217c16.641-16.64,36.715-24.96,60.215-24.96C622.875,242.628,642.947,250.948,659.59,267.588z
			 M599.373,264.364c-17.541,0-32.496,6.19-44.874,18.561c-12.377,12.378-18.564,27.338-18.564,44.88
			c0,17.543,6.203,32.517,18.616,44.929c12.41,12.414,27.352,18.617,44.822,18.617c17.541,0,32.502-6.203,44.875-18.617
			c12.375-12.412,18.564-27.386,18.564-44.929c0-17.542-6.189-32.502-18.564-44.88C631.875,270.555,616.914,264.364,599.373,264.364
			z"/>
		<path fill="#EA118D" d="M772.43,380.116V244.812h21.527v135.305c0.691,1.18,1.869,2.638,3.537,4.368
			c4.504,4.298,9.842,6.448,16.016,6.448c6.168,0,11.504-2.199,16.02-6.602c4.5-4.403,6.754-9.691,6.754-15.86V244.812h21.637
			v124.49c-0.279,11.715-4.611,21.769-12.998,30.156c-8.674,8.743-19.139,13.111-31.412,13.111
			c-12.205,0-22.295-4.298-30.264-12.902c-8.045,8.604-18.168,12.902-30.369,12.902c-12.271,0-22.709-4.368-31.307-13.111
			c-8.457-8.316-12.789-18.372-12.998-30.156v-124.49h21.529v123.659c0,6.169,2.25,11.457,6.758,15.86
			c4.506,4.402,9.846,6.602,16.018,6.602c6.24,0,11.578-2.15,16.016-6.448C770.623,382.754,771.803,381.296,772.43,380.116z"/>
	</g>
	<g opacity="0.71">
		<g>
			<path fill="#E26FAB" d="M254.44,427.39l-9.775,55.472h-3.121l9.776-55.472H254.44z"/>
			<path fill="#E26FAB" d="M266.808,476.484c2.449,2.679,5.698,4.02,9.741,4.02c4.345,0,8.331-1.535,11.961-4.612
				c0.46-0.391,0.9-0.795,1.317-1.216l3.084,1.181c-0.762,0.83-1.583,1.633-2.461,2.395c-4.391,3.718-9.221,5.581-14.489,5.581
				c-5.248,0-9.401-1.863-12.464-5.581c-3.063-3.721-4.13-8.221-3.206-13.488c0.924-5.248,3.576-9.728,7.956-13.447
				c4.379-3.725,9.192-5.582,14.438-5.582c4.507,0,8.204,1.348,11.093,4.055c0.487,0.46,0.959,0.97,1.422,1.527
				c0.163,0.203,0.312,0.411,0.45,0.622l-2.771,2.357L266.808,476.484z M290.972,452.182c-2.336-2.08-5.293-3.119-8.875-3.119
				c-4.323,0-8.292,1.528-11.908,4.592c-3.618,3.062-5.807,6.768-6.569,11.108c-0.625,3.586-0.139,6.726,1.455,9.433
				L290.972,452.182z"/>
			<path fill="#E26FAB" d="M314.952,448.817l2.566-14.492h3.119l-2.564,14.492h6.932l-0.554,3.12h-6.932l-5.443,30.924h-3.121
				l5.442-30.924h-6.931l0.554-3.12H314.952z"/>
			<path fill="#E26FAB" d="M372.901,479.813l-10.539,16.048h-3.05l12.584-19.279l-8.389-27.765h3.536l7.002,24.408l15.601-24.408
				h3.501l-20.281,31.029L372.901,479.813z"/>
			<path fill="#E26FAB" d="M421.529,445.733c5.271,0,9.429,1.857,12.479,5.582c3.051,3.72,4.114,8.214,3.191,13.481
				c-0.926,5.247-3.571,9.733-7.939,13.454c-4.368,3.718-9.188,5.581-14.456,5.581c-5.247,0-9.401-1.863-12.464-5.581
				c-3.063-3.721-4.131-8.207-3.206-13.454c0.924-5.268,3.575-9.762,7.956-13.481C411.469,447.591,416.282,445.733,421.529,445.733z
				 M408.999,453.667c-3.619,3.077-5.808,6.79-6.57,11.13c-0.763,4.348,0.12,8.053,2.651,11.116
				c2.531,3.062,5.968,4.591,10.312,4.591c4.345,0,8.326-1.528,11.944-4.591c3.616-3.063,5.805-6.769,6.57-11.116
				c0.762-4.34-0.123-8.053-2.654-11.13c-2.529-3.068-5.967-4.604-10.313-4.604C416.595,449.062,412.614,450.599,408.999,453.667z"
				/>
			<path fill="#E26FAB" d="M460.419,483.343c-4.252,0-7.418-1.255-9.498-3.774c-2.081-2.519-2.821-5.701-2.219-9.538l3.778-21.281
				h3.119l-3.708,21.009c-0.51,2.889,0.104,5.352,1.836,7.382c1.711,2.059,4.103,3.086,7.176,3.086c2.867,0,5.531-1.02,7.992-3.071
				c2.461-2.045,3.945-4.508,4.453-7.396l3.71-21.009h3.12L476.4,470.03c-0.74,3.837-2.589,7.02-5.545,9.538
				C467.896,482.088,464.417,483.343,460.419,483.343z"/>
			<path fill="#E26FAB" d="M494.663,448.817h3.121l-1.075,6.205c0.808-0.922,1.709-1.815,2.704-2.667
				c3.235-2.748,6.309-4.201,9.221-4.333l-0.589,3.391c-1.989,0.099-4.219,1.194-6.69,3.295c-3.468,2.937-5.63,6.46-6.484,10.577
				l-3.084,17.576h-3.121L494.663,448.817z"/>
			<path fill="#E26FAB" d="M548.207,448.817h3.122l-0.833,4.78c0.715-0.782,1.512-1.542,2.391-2.282
				c4.368-3.698,9.174-5.547,14.422-5.547c5.27,0,9.43,1.849,12.479,5.562c3.051,3.711,4.113,8.198,3.191,13.466
				c-0.924,5.247-3.572,9.733-7.939,13.454c-4.369,3.718-9.188,5.581-14.455,5.581c-5.248,0-9.396-1.863-12.447-5.581
				c-0.623-0.741-1.155-1.502-1.595-2.29l-3.501,19.9h-3.121L548.207,448.817z M549.108,461.539l-1.179,6.517
				c0.093,2.985,1.063,5.61,2.912,7.87c2.542,3.078,5.986,4.613,10.331,4.613c4.344,0,8.326-1.535,11.943-4.613
				c3.615-3.07,5.807-6.781,6.57-11.129c0.762-4.34-0.123-8.053-2.654-11.13c-2.529-3.068-5.969-4.604-10.312-4.604
				c-4.346,0-8.319,1.536-11.925,4.604C552.113,455.935,550.218,458.559,549.108,461.539z"/>
			<path fill="#E26FAB" d="M616.076,445.733c5.271,0,9.432,1.857,12.482,5.582c3.051,3.72,4.111,8.214,3.189,13.481
				c-0.928,5.247-3.572,9.733-7.941,13.454c-4.367,3.718-9.186,5.581-14.453,5.581c-5.248,0-9.402-1.863-12.465-5.581
				c-3.066-3.721-4.135-8.207-3.205-13.454c0.922-5.268,3.574-9.762,7.957-13.481C606.018,447.591,610.828,445.733,616.076,445.733z
				 M603.545,453.667c-3.615,3.077-5.805,6.79-6.566,11.13c-0.764,4.348,0.119,8.053,2.652,11.116
				c2.529,3.062,5.965,4.591,10.312,4.591c4.342,0,8.324-1.528,11.941-4.591c3.617-3.063,5.805-6.769,6.57-11.116
				c0.76-4.34-0.121-8.053-2.652-11.13c-2.533-3.068-5.969-4.604-10.312-4.604C611.143,449.062,607.162,450.599,603.545,453.667z"/>
			<path fill="#E26FAB" d="M653.441,465.356c-2.404-1.439-4.02-2.659-4.854-3.679c-1.314-1.592-1.779-3.509-1.385-5.757
				c0.393-2.26,1.527-4.2,3.412-5.806c1.885-1.604,3.949-2.406,6.191-2.406c2.262,0,4.01,0.74,5.23,2.219
				c1.158,1.457,1.574,3.105,1.25,4.954l-0.035,0.175l-2.873,1.074c0.068-1.752-0.254-3.07-0.957-3.949
				c-0.705-0.88-1.762-1.319-3.172-1.319c-1.385,0-2.66,0.488-3.83,1.473c-1.17,0.983-1.877,2.178-2.133,3.586
				c-0.23,1.389,0.057,2.582,0.865,3.572c0.49,0.58,1.564,1.459,3.223,2.638c2.66,1.62,4.51,3.05,5.549,4.299
				c1.598,1.989,2.164,4.354,1.699,7.104c-0.506,2.818-1.916,5.22-4.229,7.193c-2.312,1.976-4.867,2.966-7.662,2.966
				s-5.006-0.99-6.621-2.966c-1.615-1.974-2.221-4.145-1.803-6.495l3.223-0.803c-0.344,2.036,0.047,3.733,1.178,5.1
				c1.135,1.361,2.66,2.046,4.578,2.046c1.92,0,3.686-0.685,5.303-2.046c1.619-1.366,2.604-3.027,2.949-4.995
				c0.324-1.92-0.07-3.559-1.18-4.919C656.734,467.874,655.43,466.786,653.441,465.356z"/>
			<path fill="#E26FAB" d="M682.727,448.817l-5.994,34.044h-3.121l5.996-34.044H682.727z M685.344,437.654
				c0.498,0.6,0.676,1.331,0.537,2.184c-0.16,0.879-0.602,1.619-1.316,2.219c-0.715,0.601-1.504,0.899-2.355,0.899
				c-0.857,0-1.537-0.299-2.047-0.899c-0.506-0.6-0.68-1.34-0.52-2.219c0.139-0.853,0.572-1.584,1.301-2.184
				c0.729-0.601,1.52-0.9,2.375-0.9C684.17,436.754,684.848,437.054,685.344,437.654z"/>
			<path fill="#E26FAB" d="M702.793,448.817l2.564-14.492h3.121l-2.566,14.492h6.934l-0.555,3.12h-6.934l-5.441,30.924h-3.123
				l5.443-30.924h-6.93l0.553-3.12H702.793z"/>
			<path fill="#E26FAB" d="M729.098,448.817l-5.998,34.044h-3.119l5.994-34.044H729.098z M731.713,437.654
				c0.5,0.6,0.678,1.331,0.537,2.184c-0.16,0.879-0.6,1.619-1.314,2.219c-0.719,0.601-1.504,0.899-2.359,0.899
				c-0.854,0-1.535-0.299-2.045-0.899c-0.51-0.6-0.684-1.34-0.521-2.219c0.139-0.853,0.572-1.584,1.305-2.184
				c0.725-0.601,1.518-0.9,2.371-0.9C730.541,436.754,731.215,437.054,731.713,437.654z"/>
			<path fill="#E26FAB" d="M752.559,477.175l18.098-28.357h3.604l-22.881,34.98l-10.535-34.98h3.6L752.559,477.175z"/>
			<path fill="#E26FAB" d="M789.125,448.817l-5.996,34.044h-3.121l5.996-34.044H789.125z M791.74,437.654
				c0.5,0.6,0.678,1.331,0.539,2.184c-0.162,0.879-0.6,1.619-1.316,2.219c-0.719,0.601-1.502,0.899-2.357,0.899
				s-1.535-0.299-2.045-0.899c-0.51-0.6-0.684-1.34-0.523-2.219c0.141-0.853,0.572-1.584,1.305-2.184
				c0.727-0.601,1.518-0.9,2.373-0.9C790.568,436.754,791.244,437.054,791.74,437.654z"/>
			<path fill="#E26FAB" d="M809.189,448.817l2.568-14.492h3.117l-2.568,14.492h6.938l-0.559,3.12h-6.928l-5.443,30.924h-3.123
				l5.443-30.924h-6.932l0.555-3.12H809.189z"/>
			<path fill="#E26FAB" d="M838.475,479.813l-10.537,16.048h-3.053l12.584-19.279l-8.387-27.765h3.533l7.004,24.408l15.6-24.408h3.5
				l-20.279,31.029L838.475,479.813z"/>
		</g>
	</g>
	<g>
		<path opacity="0.45" fill="#E26FAB" d="M610.445,108.711c0,57.754-27.16,104.572-60.658,104.572
			c-33.506,0-60.658-46.818-60.658-104.572c0-57.755,27.151-104.573,60.658-104.573C583.285,4.138,610.445,50.956,610.445,108.711z"
			/>
		<path opacity="0.45" fill="#F79868" d="M648.312,167.431c-38.963,42.658-90.582,58.898-115.318,36.313
			c-24.736-22.604-13.209-75.487,25.74-118.11c38.959-42.658,90.586-58.908,115.318-36.314
			C698.789,71.906,687.262,124.807,648.312,167.431z"/>
		<path opacity="0.45" fill="#B89BC9" d="M451.949,167.431c38.962,42.658,90.583,58.898,115.318,36.313
			c24.734-22.604,13.209-75.487-25.74-118.11c-38.96-42.658-90.587-58.908-115.319-36.314
			C401.472,71.906,412.999,124.807,451.949,167.431z"/>
	</g>
</g>
<g>
</g>
<g>
</g>
<g>
</g>
<g>
</g>
<g>
</g>
<g>
</g>
</svg>
