<?xml version="1.0" encoding="utf-8"?>
<!-- Generator: Adobe Illustrator 16.0.0, SVG Export Plug-In . SVG Version: 6.00 Build 0)  -->
<!DOCTYPE svg PUBLIC "-//W3C//DTD SVG 1.1//EN" "http://www.w3.org/Graphics/SVG/1.1/DTD/svg11.dtd">
<svg version="1.1" id="Layer_1" xmlns="http://www.w3.org/2000/svg" xmlns:xlink="http://www.w3.org/1999/xlink" x="0px" y="0px"
	 width="58.753px" height="44.862px" viewBox="0 0 58.753 44.862" enable-background="new 0 0 58.753 44.862" xml:space="preserve">
<g>
	<ellipse opacity="0.45" fill="#E26FAB" cx="29.304" cy="22.431" rx="13.012" ry="22.431"/>
	<path opacity="0.45" fill="#F79868" d="M50.438,35.027c-8.358,9.15-19.431,12.633-24.737,7.789
		c-5.306-4.849-2.833-16.192,5.521-25.335c8.357-9.15,19.431-12.636,24.737-7.79C61.264,14.536,58.792,25.882,50.438,35.027z"/>
	<path opacity="0.45" fill="#B89BC9" d="M8.316,35.027c8.358,9.15,19.431,12.633,24.736,7.789
		c5.307-4.849,2.834-16.192-5.521-25.335C19.174,8.331,8.1,4.845,2.795,9.691C-2.511,14.536-0.038,25.882,8.316,35.027z"/>
</g>
<g>
</g>
<g>
</g>
<g>
</g>
<g>
</g>
<g>
</g>
<g>
</g>
</svg>
